# xmcd
#
# Track frame offsets:
#	150
#	14790
#	28399
#	39874
#	53994
#	67615
#	84926
#	99244
#	110924
#	121593
#	133799
#	144067
#
# Disc length: 2081 seconds
#
# Revision: 0
# Processed by: cddbd v1.5.2PL0 Copyright (c) Steve Scherf et al.
# Submitted via: EasyCDDAExtractor 2011.0.0.0
#
DISCID=96081f0c
DTITLE=Conway Twitty - You've never been this far before
DYEAR=1900
DGENRE=Country
TTITLE0=You've never been this far before
TTITLE1=After all the good is gone
TTITLE2=As soon as I hang up the phone
TTITLE3=Baby's gone
TTITLE4=Danny boy
TTITLE5=Don't cry Joni
TTITLE6=Fifteen years ago
TTITLE7=Hello Darlin'
TTITLE8=(I can't believe) She gives it all to me
TTITLE9=I can't see me without you
TTITLE10=I'll try
TTITLE11=I'm not through loving yo yet
EXTD=
EXTT0=
EXTT1=
EXTT2=
EXTT3=
EXTT4=
EXTT5=
EXTT6=
EXTT7=
EXTT8=
EXTT9=
EXTT10=
EXTT11=
PLAYORDER=
